<svg width="26" height="15" viewBox="0 0 26 15" fill="none" xmlns="http://www.w3.org/2000/svg">
<path d="M24.088 14.4447H21.4257C20.4188 14.4447 20.1155 13.6292 18.3107 11.8232C16.7333 10.3031 16.0672 10.1141 15.6682 10.1141C15.1163 10.1141 14.9658 10.2657 14.9658 11.0252V13.4192C14.9658 14.0667 14.7558 14.4459 13.0642 14.4459C11.423 14.3356 9.83152 13.8371 8.4208 12.9912C7.01007 12.1454 5.82048 10.9765 4.95 9.58089C2.88312 7.00842 1.44499 3.98915 0.75 0.763226C0.75 0.364226 0.901667 0.0025595 1.66233 0.0025595H4.32233C5.006 0.0025595 5.25217 0.30706 5.5205 1.01056C6.812 4.81156 9.01583 8.11789 9.91067 8.11789C10.2537 8.11789 10.403 7.96623 10.403 7.11106V3.19573C10.2898 1.40956 9.34133 1.25906 9.34133 0.612726C9.35333 0.442207 9.43133 0.283083 9.55877 0.169152C9.68621 0.0552202 9.85304 -0.00454177 10.0238 0.0025595H14.2052C14.7768 0.0025595 14.9658 0.287226 14.9658 0.970893V6.25589C14.9658 6.82639 15.2108 7.01539 15.3835 7.01539C15.7265 7.01539 15.9902 6.82639 16.619 6.19873C17.9669 4.55488 19.0681 2.72342 19.888 0.762059C19.9719 0.526572 20.1306 0.324996 20.3397 0.188079C20.5489 0.0511625 20.7971 -0.0135805 21.0465 0.00372608H23.7077C24.5057 0.00372608 24.6748 0.402727 24.5057 0.97206C23.5378 3.14021 22.3401 5.19831 20.9333 7.11106C20.6463 7.54856 20.532 7.77606 20.9333 8.28939C21.197 8.68839 22.1303 9.46773 22.7568 10.2086C23.6692 11.1186 24.4263 12.1709 24.9992 13.3236C25.2278 14.0656 24.8475 14.4447 24.088 14.4447Z" fill="white"/>
</svg>
