<svg width="24" height="18" viewBox="0 0 24 18" fill="none" xmlns="http://www.w3.org/2000/svg">
<path d="M9.66658 12.5002L15.7216 9.00016L9.66658 5.50016V12.5002ZM23.1532 3.36516C23.3049 3.9135 23.4099 4.6485 23.4799 5.58183C23.5616 6.51516 23.5966 7.32016 23.5966 8.02016L23.6666 9.00016C23.6666 11.5552 23.4799 13.4335 23.1532 14.6352C22.8616 15.6852 22.1849 16.3618 21.1349 16.6535C20.5866 16.8052 19.5833 16.9102 18.0433 16.9802C16.5266 17.0618 15.1383 17.0968 13.8549 17.0968L11.9999 17.1668C7.11159 17.1668 4.06659 16.9802 2.86492 16.6535C1.81492 16.3618 1.13825 15.6852 0.846585 14.6352C0.694919 14.0868 0.589919 13.3518 0.519919 12.4185C0.438252 11.4852 0.403252 10.6802 0.403252 9.98016L0.333252 9.00016C0.333252 6.44516 0.519919 4.56683 0.846585 3.36516C1.13825 2.31516 1.81492 1.6385 2.86492 1.34683C3.41325 1.19516 4.41659 1.09016 5.95659 1.02016C7.47325 0.938496 8.86158 0.903496 10.1449 0.903496L11.9999 0.833496C16.8883 0.833496 19.9333 1.02016 21.1349 1.34683C22.1849 1.6385 22.8616 2.31516 23.1532 3.36516Z" fill="white"/>
</svg>
