<svg width="232" height="51" viewBox="0 0 232 51" fill="none" xmlns="http://www.w3.org/2000/svg">
<g clip-path="url(#clip0_4_216)">
<path fill-rule="evenodd" clip-rule="evenodd" d="M-0.0603027 10.9212H3.68993L16.9261 30.5164L18.5648 28.0807L13.2467 20.4839C11.2928 17.8759 8.82681 14.1714 8.165 10.9134C7.71592 8.69702 8.10197 6.29266 9.29953 4.37387C10.6704 2.17313 12.7976 0.849559 15.5 0.661596C18.1866 0.473633 20.4005 1.22548 22.3702 3.31657C22.4805 3.42622 22.5829 3.46538 22.7011 3.42622C22.8272 3.37923 23.0872 3.08945 23.2053 2.97981C24.1035 2.1653 25.0568 1.67973 26.081 1.52309C26.0889 1.81287 26.0968 1.95384 26.0968 1.95384C23.8908 3.62985 24.3241 5.5408 24.3083 7.9295C24.2138 9.51152 23.6623 10.7724 22.6538 11.7123C21.7714 12.5972 20.7157 13.1376 19.4787 13.3334C19.4787 12.9732 19.4787 12.793 19.4787 12.793C21.4642 11.6496 21.8738 9.47236 21.2199 7.42043C20.4478 5.00041 17.8873 3.48887 15.2085 4.10759C13.6485 4.46785 12.2934 5.5408 11.7261 7.13066C10.6468 10.1537 12.8449 13.9287 14.5388 16.4035L20.5975 25.0968L30.2252 10.8978H33.8888L33.9045 37.2361L30.0755 37.2831V16.7011L18.7933 33.2654C19.6363 34.4323 20.4005 35.6854 21.0702 37.0324C22.1102 39.1157 21.6532 41.9508 19.7466 43.3919C17.6588 44.9739 14.4758 44.4961 13.0261 42.2876C11.8207 40.4549 12.1122 38.5831 12.9552 36.7192C13.294 35.9752 13.7273 35.2076 14.2631 34.4245C15.5788 36.3432 16.2406 37.3066 16.2406 37.3066C15.6418 38.2072 14.917 39.7814 15.7679 40.7212C16.1303 41.1285 16.7055 41.3086 17.2727 41.1755C18.3363 40.9248 18.5884 39.9459 18.4703 38.9982C18.3678 38.1759 17.1309 36.4686 16.6109 35.654L3.76872 16.7089L3.72145 37.1264H-0.0603027V10.9212Z" fill="#FF4439"/>
<path fill-rule="evenodd" clip-rule="evenodd" d="M21.1806 32.067L23.2369 29.0596C23.9223 30.1952 25.0175 31.8869 25.9156 33.5315C27.1447 35.7793 27.8853 37.933 27.7592 40.2355C27.5701 43.6267 25.7423 46.6654 23.0084 48.5529C19.7466 50.7928 15.9964 50.9416 12.7819 49.524C10.765 48.6312 8.9529 47.1275 7.59777 45.1304C7.5505 45.0599 7.47171 44.8955 7.38505 44.8955C7.27475 44.8955 7.22747 44.9973 7.17232 45.0756C6.50264 46.0467 5.57296 46.6341 4.3754 46.8299C4.18632 46.8612 3.76087 47.0022 3.72148 46.7203C3.68996 46.5245 4.02874 46.3522 4.17844 46.2425C6.33719 44.6135 6.0378 42.7965 6.23477 40.682C6.30567 39.9693 6.3687 39.2879 6.70748 38.8415C7.20384 38.1993 8.41715 38.0583 8.93714 38.7553C9.16562 39.0608 9.35471 39.7735 9.48077 40.3687C9.59895 40.9561 9.725 41.5043 9.88258 42.0212C10.8989 45.3027 14.5152 47.4095 17.8636 47.0257C21.0624 46.6654 23.1108 44.5978 24.072 41.7392C24.6393 40.0397 24.4108 38.3324 23.7647 36.7347C23.1187 35.2075 22.0078 33.508 21.1806 32.067Z" fill="#FF4439"/>
<path d="M220.81 33.61H231.706V31.9732H222.89V26.2716L230.193 26.2951V24.5878H222.89V19.1369L231.422 19.1604V17.5079L220.81 17.4844V33.61Z" fill="white"/>
<path d="M201.988 33.6101H204.036V21.3455C204.036 21.2593 204.004 21.04 204.107 21.0244C204.186 21.0087 204.225 21.0635 204.272 21.1183L213.522 32.6781C213.616 32.7955 213.727 32.913 213.79 33.0462C213.869 33.2028 213.916 33.3829 213.932 33.6022H216.019L216.051 17.5079L213.971 17.5001L213.947 29.8116C213.947 29.8665 213.955 29.9448 213.876 29.9604C213.79 29.9839 213.711 29.8743 213.664 29.8116L203.808 17.4766H201.988V33.6101Z" fill="white"/>
<path d="M197.276 17.4844H195.196V33.6805H197.276V17.4844Z" fill="white"/>
<path d="M181.062 17.3745H179.029V33.602H181.062V17.3745Z" fill="#FEFEFE"/>
<path d="M181.062 27.5482V33.61H179.029V17.4844L185.364 17.5C188.003 17.5079 190.729 19.2857 191.091 21.9798C191.367 24.0474 190.02 26.0524 188.074 26.8825C187.948 26.9373 187.475 27.0862 187.42 27.1645C187.318 27.3054 187.499 27.5247 187.585 27.6422C188.94 29.5297 190.351 31.5189 191.808 33.61H189.397L185.781 28.1669C185.663 27.9868 185.521 27.7284 185.34 27.6187C185.206 27.5404 185.119 27.5482 184.978 27.5482H181.062ZM181.062 19.1682V25.9584L184.907 25.9662C185.553 25.9662 186.081 25.8801 186.711 25.6843C187.822 25.3397 188.547 24.7601 188.885 23.9378C189.098 23.3504 189.193 22.8022 189.161 22.2774C189.106 21.134 188.484 20.1472 187.428 19.646C185.899 18.9254 182.701 18.9802 181.062 19.1682Z" fill="white"/>
<path d="M162.366 33.61H160.042L167.038 17.4844L169.165 17.4922L176.067 33.61H173.924L171.915 28.7856L164.375 28.723L162.366 33.61ZM167.968 19.9592L165.029 27.0862L171.206 27.0783L168.338 20.155C168.298 20.0689 168.212 19.8026 168.149 19.7634C168.054 19.7008 167.991 19.8966 167.968 19.9592Z" fill="white"/>
<path d="M142.165 33.61H140.085L140.117 17.4844H142.07L148.405 29.5688C148.46 29.6706 148.515 29.749 148.57 29.7881C148.641 29.8429 148.681 29.8429 148.744 29.7881C148.822 29.7176 148.909 29.5845 148.996 29.373L155.181 17.5157L157.166 17.5235V33.6179H155.133V22.0112C155.133 21.9328 155.157 21.6587 155.102 21.6274C154.991 21.5647 154.889 21.7919 154.858 21.8545L149.689 31.6364C149.445 32.1063 149.295 32.3961 148.665 32.3726C148.224 32.357 148.011 32.1612 147.838 31.887C147.57 31.4563 147.318 30.9159 147.073 30.4617L142.535 21.7997C142.488 21.7057 142.386 21.4394 142.267 21.4473C142.126 21.4551 142.157 21.5804 142.157 21.69V33.61H142.165Z" fill="white"/>
<path d="M116.851 27.5482V33.61H114.818V17.4844L121.153 17.5C123.784 17.5079 126.518 19.2857 126.88 21.9798C127.156 24.0474 125.809 26.0524 123.863 26.8825C123.737 26.9373 123.264 27.0862 123.209 27.1645C123.107 27.3054 123.288 27.5247 123.374 27.6422C124.73 29.5297 126.14 31.5189 127.597 33.61H125.187L121.57 28.1669C121.452 27.9868 121.31 27.7284 121.129 27.6187C120.995 27.5404 120.908 27.5482 120.767 27.5482H116.851ZM116.851 19.1682V25.9584L120.696 25.9662C121.342 25.9662 121.87 25.8801 122.5 25.6843C123.611 25.3397 124.336 24.7601 124.674 23.9378C124.887 23.3504 124.982 22.8022 124.95 22.2774C124.895 21.134 124.273 20.1472 123.217 19.646C121.696 18.9254 118.49 18.9802 116.851 19.1682Z" fill="white"/>
<path d="M100.203 33.61H111.107V31.9732H102.283V26.2716L109.587 26.2951V24.5878H102.283V19.1369L110.824 19.1604V17.5079L100.203 17.4844V33.61Z" fill="white"/>
<path d="M86.5654 27.5482V33.61H84.5327V17.4844L90.8671 17.5C93.5065 17.5079 96.2325 19.2857 96.5949 21.9798C97.0125 25.0734 94.2865 27.0783 91.4974 27.4777C91.1587 27.5247 90.8199 27.5482 90.4811 27.5482H86.5654ZM86.5654 19.1682V25.9584L90.4102 25.9662C91.0562 25.9662 91.5841 25.8801 92.2144 25.6843C93.3253 25.3397 94.0501 24.7601 94.3889 23.9378C94.6016 23.3504 94.6962 22.8022 94.6725 22.2774C94.6174 21.134 93.995 20.1472 92.9313 19.646C91.4029 18.9254 88.1963 18.9802 86.5654 19.1682Z" fill="white"/>
<path d="M77.5759 17.4844H79.6953L79.7268 33.5944H77.8438L77.8359 32.1142C77.8359 32.028 77.8595 31.8244 77.7729 31.7852C77.6468 31.7304 77.3317 32.0437 77.2292 32.122C76.0474 33.0148 74.7711 33.5552 73.3923 33.751C71.7457 33.986 69.7288 33.5396 68.4445 32.4196C66.2228 30.4695 66.8531 26.4674 66.7506 23.3504V17.4922H68.6179L68.5706 27.1723C68.6415 28.8405 68.9567 30.0387 69.5082 30.7671C70.493 32.0515 72.5493 32.3178 74.0384 31.9654C74.7553 31.7617 75.7953 31.4093 76.5989 30.8924C77.0559 30.5948 77.6468 30.1875 77.7571 29.6471L77.7729 18.4947C77.7807 18.0953 77.7965 17.8211 77.5759 17.4844Z" fill="white"/>
<path fill-rule="evenodd" clip-rule="evenodd" d="M62.8507 19.0584C62.378 19.7555 62.0392 20.335 61.8265 20.7971C61.1647 20.0061 60.0301 19.4109 58.8168 19.1054C57.0047 18.6512 54.4757 18.7452 53.8375 20.6639C53.5302 21.6038 53.7824 22.4026 54.4363 22.9665C54.8933 23.3659 56.1223 23.8985 57.3278 24.384C59.2344 25.1516 61.8186 25.9034 62.6064 27.9632C63.0398 29.1144 62.9295 30.391 62.2834 31.417C61.4719 32.7171 60.1168 33.3906 58.6671 33.696C57.5011 33.9467 56.2957 33.8135 55.169 33.4533C53.9793 33.0773 52.4824 32.396 51.403 31.7929C52.1121 30.72 52.4666 30.1796 52.4666 30.1796C54.0502 31.6284 56.7684 32.5761 58.9114 31.8634C60.0301 31.4875 60.9677 30.626 60.9677 29.4982C60.9756 28.6524 60.5186 28.0258 59.8883 27.5716C59.1477 27.039 57.9423 26.4986 56.9023 26.107C55.7757 25.6763 53.9478 25.1437 52.963 24.2509C52.0412 23.4129 51.6945 22.246 51.8442 21.0555C52.1278 18.8078 54.003 17.4294 56.146 17.2101C56.9811 17.124 57.8714 17.2101 58.7302 17.4059C60.2507 17.774 61.4562 18.424 62.8507 19.0584Z" fill="white"/>
</g>
<defs>
<clipPath id="clip0_4_216">
<rect width="232" height="51" fill="white"/>
</clipPath>
</defs>
</svg>
