<svg width="6" height="16" viewBox="0 0 6 16" fill="none" xmlns="http://www.w3.org/2000/svg">
<path d="M3 0L0.113249 5H5.88675L3 0ZM3.5 16C3.5 15.991 3.5 15.9821 3.5 15.9731C3.5 15.9642 3.5 15.9552 3.5 15.9463C3.5 15.9374 3.5 15.9284 3.5 15.9195C3.5 15.9106 3.5 15.9016 3.5 15.8927C3.5 15.8838 3.5 15.8749 3.5 15.866C3.5 15.8571 3.5 15.8482 3.5 15.8393C3.5 15.8304 3.5 15.8215 3.5 15.8126C3.5 15.8037 3.5 15.7948 3.5 15.786C3.5 15.7771 3.5 15.7682 3.5 15.7594C3.5 15.7505 3.5 15.7416 3.5 15.7328C3.5 15.7239 3.5 15.7151 3.5 15.7063C3.5 15.6974 3.5 15.6886 3.5 15.6798C3.5 15.6709 3.5 15.6621 3.5 15.6533C3.5 15.6445 3.5 15.6356 3.5 15.6268C3.5 15.618 3.5 15.6092 3.5 15.6004C3.5 15.5916 3.5 15.5828 3.5 15.5741C3.5 15.5653 3.5 15.5565 3.5 15.5477C3.5 15.5389 3.5 15.5302 3.5 15.5214C3.5 15.5126 3.5 15.5039 3.5 15.4951C3.5 15.4864 3.5 15.4776 3.5 15.4689C3.5 15.4601 3.5 15.4514 3.5 15.4427C3.5 15.4339 3.5 15.4252 3.5 15.4165C3.5 15.4078 3.5 15.399 3.5 15.3903C3.5 15.3816 3.5 15.3729 3.5 15.3642C3.5 15.3555 3.5 15.3468 3.5 15.3381C3.5 15.3294 3.5 15.3207 3.5 15.3121C3.5 15.3034 3.5 15.2947 3.5 15.286C3.5 15.2774 3.5 15.2687 3.5 15.2601C3.5 15.2514 3.5 15.2427 3.5 15.2341C3.5 15.2254 3.5 15.2168 3.5 15.2082C3.5 15.1995 3.5 15.1909 3.5 15.1823C3.5 15.1736 3.5 15.165 3.5 15.1564C3.5 15.1478 3.5 15.1392 3.5 15.1306C3.5 15.1219 3.5 15.1133 3.5 15.1047C3.5 15.0961 3.5 15.0876 3.5 15.079C3.5 15.0704 3.5 15.0618 3.5 15.0532C3.5 15.0446 3.5 15.0361 3.5 15.0275C3.5 15.0189 3.5 15.0104 3.5 15.0018C3.5 14.9933 3.5 14.9847 3.5 14.9762C3.5 14.9676 3.5 14.9591 3.5 14.9505C3.5 14.942 3.5 14.9335 3.5 14.9249C3.5 14.9164 3.5 14.9079 3.5 14.8994C3.5 14.8909 3.5 14.8823 3.5 14.8738C3.5 14.8653 3.5 14.8568 3.5 14.8483C3.5 14.8398 3.5 14.8313 3.5 14.8229C3.5 14.8144 3.5 14.8059 3.5 14.7974C3.5 14.7889 3.5 14.7805 3.5 14.772C3.5 14.7635 3.5 14.7551 3.5 14.7466C3.5 14.7381 3.5 14.7297 3.5 14.7212C3.5 14.7128 3.5 14.7044 3.5 14.6959C3.5 14.6875 3.5 14.679 3.5 14.6706C3.5 14.6622 3.5 14.6538 3.5 14.6453C3.5 14.6369 3.5 14.6285 3.5 14.6201C3.5 14.6117 3.5 14.6033 3.5 14.5949C3.5 14.5865 3.5 14.5781 3.5 14.5697C3.5 14.5613 3.5 14.5529 3.5 14.5445C3.5 14.5362 3.5 14.5278 3.5 14.5194C3.5 14.511 3.5 14.5027 3.5 14.4943C3.5 14.4859 3.5 14.4776 3.5 14.4692C3.5 14.4609 3.5 14.4525 3.5 14.4442C3.5 14.4359 3.5 14.4275 3.5 14.4192C3.5 14.4108 3.5 14.4025 3.5 14.3942C3.5 14.3859 3.5 14.3775 3.5 14.3692C3.5 14.3609 3.5 14.3526 3.5 14.3443C3.5 14.336 3.5 14.3277 3.5 14.3194C3.5 14.3111 3.5 14.3028 3.5 14.2945C3.5 14.2862 3.5 14.2779 3.5 14.2697C3.5 14.2614 3.5 14.2531 3.5 14.2448C3.5 14.2366 3.5 14.2283 3.5 14.22C3.5 14.2118 3.5 14.2035 3.5 14.1953C3.5 14.187 3.5 14.1788 3.5 14.1705C3.5 14.1623 3.5 14.1541 3.5 14.1458C3.5 14.1376 3.5 14.1294 3.5 14.1211C3.5 14.1129 3.5 14.1047 3.5 14.0965C3.5 14.0883 3.5 14.0801 3.5 14.0718C3.5 14.0636 3.5 14.0554 3.5 14.0472C3.5 14.039 3.5 14.0308 3.5 14.0227C3.5 14.0145 3.5 14.0063 3.5 13.9981C3.5 13.9899 3.5 13.9817 3.5 13.9736C3.5 13.9654 3.5 13.9572 3.5 13.9491C3.5 13.9409 3.5 13.9328 3.5 13.9246C3.5 13.9164 3.5 13.9083 3.5 13.9001C3.5 13.892 3.5 13.8839 3.5 13.8757C3.5 13.8676 3.5 13.8595 3.5 13.8513C3.5 13.8432 3.5 13.8351 3.5 13.827C3.5 13.8188 3.5 13.8107 3.5 13.8026C3.5 13.7945 3.5 13.7864 3.5 13.7783C3.5 13.7702 3.5 13.7621 3.5 13.754C3.5 13.7459 3.5 13.7378 3.5 13.7297C3.5 13.7216 3.5 13.7136 3.5 13.7055C3.5 13.6974 3.5 13.6893 3.5 13.6813C3.5 13.6732 3.5 13.6651 3.5 13.6571C3.5 13.649 3.5 13.6409 3.5 13.6329C3.5 13.6248 3.5 13.6168 3.5 13.6088C3.5 13.6007 3.5 13.5927 3.5 13.5846C3.5 13.5766 3.5 13.5686 3.5 13.5605C3.5 13.5525 3.5 13.5445 3.5 13.5365C3.5 13.5284 3.5 13.5204 3.5 13.5124C3.5 13.5044 3.5 13.4964 3.5 13.4884C3.5 13.4804 3.5 13.4724 3.5 13.4644C3.5 13.4564 3.5 13.4484 3.5 13.4404C3.5 13.4324 3.5 13.4245 3.5 13.4165C3.5 13.4085 3.5 13.4005 3.5 13.3926C3.5 13.3846 3.5 13.3766 3.5 13.3686C3.5 13.3607 3.5 13.3527 3.5 13.3448C3.5 13.3368 3.5 13.3289 3.5 13.3209C3.5 13.313 3.5 13.305 3.5 13.2971C3.5 13.2891 3.5 13.2812 3.5 13.2733C3.5 13.2653 3.5 13.2574 3.5 13.2495C3.5 13.2416 3.5 13.2337 3.5 13.2257C3.5 13.2178 3.5 13.2099 3.5 13.202C3.5 13.1941 3.5 13.1862 3.5 13.1783C3.5 13.1704 3.5 13.1625 3.5 13.1546C3.5 13.1467 3.5 13.1388 3.5 13.1309C3.5 13.123 3.5 13.1152 3.5 13.1073C3.5 13.0994 3.5 13.0915 3.5 13.0837C3.5 13.0758 3.5 13.0679 3.5 13.0601C3.5 13.0522 3.5 13.0443 3.5 13.0365C3.5 13.0286 3.5 13.0208 3.5 13.0129C3.5 13.0051 3.5 12.9972 3.5 12.9894C3.5 12.9816 3.5 12.9737 3.5 12.9659C3.5 12.958 3.5 12.9502 3.5 12.9424C3.5 12.9346 3.5 12.9267 3.5 12.9189C3.5 12.9111 3.5 12.9033 3.5 12.8955C3.5 12.8877 3.5 12.8799 3.5 12.8721C3.5 12.8643 3.5 12.8565 3.5 12.8487C3.5 12.8409 3.5 12.8331 3.5 12.8253C3.5 12.8175 3.5 12.8097 3.5 12.8019C3.5 12.7941 3.5 12.7864 3.5 12.7786C3.5 12.7708 3.5 12.763 3.5 12.7553C3.5 12.7475 3.5 12.7397 3.5 12.732C3.5 12.7242 3.5 12.7165 3.5 12.7087C3.5 12.7009 3.5 12.6932 3.5 12.6855C3.5 12.6777 3.5 12.67 3.5 12.6622C3.5 12.6545 3.5 12.6467 3.5 12.639C3.5 12.6313 3.5 12.6235 3.5 12.6158C3.5 12.6081 3.5 12.6004 3.5 12.5927C3.5 12.5849 3.5 12.5772 3.5 12.5695C3.5 12.5618 3.5 12.5541 3.5 12.5464C3.5 12.5387 3.5 12.531 3.5 12.5233C3.5 12.5156 3.5 12.5079 3.5 12.5002C3.5 12.4925 3.5 12.4848 3.5 12.4771C3.5 12.4694 3.5 12.4618 3.5 12.4541C3.5 12.4464 3.5 12.4387 3.5 12.431C3.5 12.4234 3.5 12.4157 3.5 12.408C3.5 12.4004 3.5 12.3927 3.5 12.3851C3.5 12.3774 3.5 12.3697 3.5 12.3621C3.5 12.3544 3.5 12.3468 3.5 12.3391C3.5 12.3315 3.5 12.3239 3.5 12.3162C3.5 12.3086 3.5 12.3009 3.5 12.2933C3.5 12.2857 3.5 12.278 3.5 12.2704C3.5 12.2628 3.5 12.2552 3.5 12.2475C3.5 12.2399 3.5 12.2323 3.5 12.2247C3.5 12.2171 3.5 12.2095 3.5 12.2019C3.5 12.1943 3.5 12.1867 3.5 12.179C3.5 12.1714 3.5 12.1639 3.5 12.1563C3.5 12.1487 3.5 12.1411 3.5 12.1335C3.5 12.1259 3.5 12.1183 3.5 12.1107C3.5 12.1031 3.5 12.0956 3.5 12.088C3.5 12.0804 3.5 12.0728 3.5 12.0653C3.5 12.0577 3.5 12.0501 3.5 12.0426C3.5 12.035 3.5 12.0274 3.5 12.0199C3.5 12.0123 3.5 12.0048 3.5 11.9972C3.5 11.9897 3.5 11.9821 3.5 11.9746C3.5 11.967 3.5 11.9595 3.5 11.9519C3.5 11.9444 3.5 11.9369 3.5 11.9293C3.5 11.9218 3.5 11.9143 3.5 11.9067C3.5 11.8992 3.5 11.8917 3.5 11.8842C3.5 11.8766 3.5 11.8691 3.5 11.8616C3.5 11.8541 3.5 11.8466 3.5 11.8391C3.5 11.8316 3.5 11.824 3.5 11.8165C3.5 11.809 3.5 11.8015 3.5 11.794C3.5 11.7865 3.5 11.779 3.5 11.7715C3.5 11.764 3.5 11.7566 3.5 11.7491C3.5 11.7416 3.5 11.7341 3.5 11.7266C3.5 11.7191 3.5 11.7117 3.5 11.7042C3.5 11.6967 3.5 11.6892 3.5 11.6818C3.5 11.6743 3.5 11.6668 3.5 11.6594C3.5 11.6519 3.5 11.6444 3.5 11.637C3.5 11.6295 3.5 11.622 3.5 11.6146C3.5 11.6071 3.5 11.5997 3.5 11.5922C3.5 11.5848 3.5 11.5773 3.5 11.5699C3.5 11.5625 3.5 11.555 3.5 11.5476C3.5 11.5401 3.5 11.5327 3.5 11.5253C3.5 11.5178 3.5 11.5104 3.5 11.503C3.5 11.4956 3.5 11.4881 3.5 11.4807C3.5 11.4733 3.5 11.4659 3.5 11.4584C3.5 11.451 3.5 11.4436 3.5 11.4362C3.5 11.4288 3.5 11.4214 3.5 11.414C3.5 11.4066 3.5 11.3992 3.5 11.3918C3.5 11.3844 3.5 11.377 3.5 11.3696C3.5 11.3622 3.5 11.3548 3.5 11.3474C3.5 11.34 3.5 11.3326 3.5 11.3252C3.5 11.3178 3.5 11.3104 3.5 11.3031C3.5 11.2957 3.5 11.2883 3.5 11.2809C3.5 11.2736 3.5 11.2662 3.5 11.2588C3.5 11.2514 3.5 11.2441 3.5 11.2367C3.5 11.2293 3.5 11.222 3.5 11.2146C3.5 11.2073 3.5 11.1999 3.5 11.1925C3.5 11.1852 3.5 11.1778 3.5 11.1705C3.5 11.1631 3.5 11.1558 3.5 11.1484C3.5 11.1411 3.5 11.1337 3.5 11.1264C3.5 11.1191 3.5 11.1117 3.5 11.1044C3.5 11.097 3.5 11.0897 3.5 11.0824C3.5 11.075 3.5 11.0677 3.5 11.0604C3.5 11.0531 3.5 11.0457 3.5 11.0384C3.5 11.0311 3.5 11.0238 3.5 11.0164C3.5 11.0091 3.5 11.0018 3.5 10.9945C3.5 10.9872 3.5 10.9799 3.5 10.9726C3.5 10.9652 3.5 10.9579 3.5 10.9506C3.5 10.9433 3.5 10.936 3.5 10.9287C3.5 10.9214 3.5 10.9141 3.5 10.9068C3.5 10.8995 3.5 10.8922 3.5 10.8849C3.5 10.8777 3.5 10.8704 3.5 10.8631C3.5 10.8558 3.5 10.8485 3.5 10.8412C3.5 10.8339 3.5 10.8267 3.5 10.8194C3.5 10.8121 3.5 10.8048 3.5 10.7975C3.5 10.7903 3.5 10.783 3.5 10.7757C3.5 10.7685 3.5 10.7612 3.5 10.7539C3.5 10.7467 3.5 10.7394 3.5 10.7321C3.5 10.7249 3.5 10.7176 3.5 10.7104C3.5 10.7031 3.5 10.6958 3.5 10.6886C3.5 10.6813 3.5 10.6741 3.5 10.6668C3.5 10.6596 3.5 10.6523 3.5 10.6451C3.5 10.6378 3.5 10.6306 3.5 10.6234C3.5 10.6161 3.5 10.6089 3.5 10.6016C3.5 10.5944 3.5 10.5872 3.5 10.5799C3.5 10.5727 3.5 10.5655 3.5 10.5582C3.5 10.551 3.5 10.5438 3.5 10.5366C3.5 10.5293 3.5 10.5221 3.5 10.5149C3.5 10.5077 3.5 10.5004 3.5 10.4932C3.5 10.486 3.5 10.4788 3.5 10.4716C3.5 10.4644 3.5 10.4572 3.5 10.4499C3.5 10.4427 3.5 10.4355 3.5 10.4283C3.5 10.4211 3.5 10.4139 3.5 10.4067C3.5 10.3995 3.5 10.3923 3.5 10.3851C3.5 10.3779 3.5 10.3707 3.5 10.3635C3.5 10.3563 3.5 10.3491 3.5 10.3419C3.5 10.3347 3.5 10.3275 3.5 10.3204C3.5 10.3132 3.5 10.306 3.5 10.2988C3.5 10.2916 3.5 10.2844 3.5 10.2772C3.5 10.2701 3.5 10.2629 3.5 10.2557C3.5 10.2485 3.5 10.2414 3.5 10.2342C3.5 10.227 3.5 10.2198 3.5 10.2127C3.5 10.2055 3.5 10.1983 3.5 10.1912C3.5 10.184 3.5 10.1768 3.5 10.1697C3.5 10.1625 3.5 10.1553 3.5 10.1482C3.5 10.141 3.5 10.1338 3.5 10.1267C3.5 10.1195 3.5 10.1124 3.5 10.1052C3.5 10.0981 3.5 10.0909 3.5 10.0838C3.5 10.0766 3.5 10.0695 3.5 10.0623C3.5 10.0552 3.5 10.048 3.5 10.0409C3.5 10.0337 3.5 10.0266 3.5 10.0194C3.5 10.0123 3.5 10.0052 3.5 9.99802C3.5 9.99088 3.5 9.98374 3.5 9.9766C3.5 9.96947 3.5 9.96233 3.5 9.9552C3.5 9.94807 3.5 9.94094 3.5 9.93381C3.5 9.92668 3.5 9.91955 3.5 9.91242C3.5 9.9053 3.5 9.89817 3.5 9.89105C3.5 9.88392 3.5 9.8768 3.5 9.86968C3.5 9.86256 3.5 9.85544 3.5 9.84832C3.5 9.8412 3.5 9.83408 3.5 9.82697C3.5 9.81985 3.5 9.81274 3.5 9.80563C3.5 9.79851 3.5 9.7914 3.5 9.78429C3.5 9.77718 3.5 9.77008 3.5 9.76297C3.5 9.75586 3.5 9.74876 3.5 9.74165C3.5 9.73455 3.5 9.72744 3.5 9.72034C3.5 9.71324 3.5 9.70614 3.5 9.69904C3.5 9.69194 3.5 9.68484 3.5 9.67775C3.5 9.67065 3.5 9.66355 3.5 9.65646C3.5 9.64937 3.5 9.64227 3.5 9.63518C3.5 9.62809 3.5 9.621 3.5 9.61391C3.5 9.60682 3.5 9.59974 3.5 9.59265C3.5 9.58556 3.5 9.57848 3.5 9.57139C3.5 9.56431 3.5 9.55723 3.5 9.55014C3.5 9.54306 3.5 9.53598 3.5 9.5289C3.5 9.52182 3.5 9.51475 3.5 9.50767C3.5 9.50059 3.5 9.49352 3.5 9.48644C3.5 9.47937 3.5 9.47229 3.5 9.46522C3.5 9.45815 3.5 9.45108 3.5 9.44401C3.5 9.43694 3.5 9.42987 3.5 9.4228C3.5 9.41573 3.5 9.40866 3.5 9.4016C3.5 9.39453 3.5 9.38747 3.5 9.3804C3.5 9.37334 3.5 9.36628 3.5 9.35922C3.5 9.35216 3.5 9.34509 3.5 9.33804C3.5 9.33098 3.5 9.32392 3.5 9.31686C3.5 9.3098 3.5 9.30275 3.5 9.29569C3.5 9.28864 3.5 9.28158 3.5 9.27453C3.5 9.26747 3.5 9.26042 3.5 9.25337C3.5 9.24632 3.5 9.23927 3.5 9.23222C3.5 9.22517 3.5 9.21812 3.5 9.21107C3.5 9.20403 3.5 9.19698 3.5 9.18993C3.5 9.18289 3.5 9.17584 3.5 9.1688C3.5 9.16175 3.5 9.15471 3.5 9.14767C3.5 9.14063 3.5 9.13359 3.5 9.12654C3.5 9.1195 3.5 9.11246 3.5 9.10543C3.5 9.09839 3.5 9.09135 3.5 9.08431C3.5 9.07728 3.5 9.07024 3.5 9.0632C3.5 9.05617 3.5 9.04913 3.5 9.0421C3.5 9.03507 3.5 9.02803 3.5 9.021C3.5 9.01397 3.5 9.00694 3.5 8.99991C3.5 8.99288 3.5 8.98585 3.5 8.97882C3.5 8.97179 3.5 8.96476 3.5 8.95773C3.5 8.9507 3.5 8.94368 3.5 8.93665C3.5 8.92963 3.5 8.9226 3.5 8.91558C3.5 8.90855 3.5 8.90153 3.5 8.8945C3.5 8.88748 3.5 8.88046 3.5 8.87344C3.5 8.86641 3.5 8.85939 3.5 8.85237C3.5 8.84535 3.5 8.83833 3.5 8.83131C3.5 8.82429 3.5 8.81727 3.5 8.81026C3.5 8.80324 3.5 8.79622 3.5 8.7892C3.5 8.78219 3.5 8.77517 3.5 8.76815C3.5 8.76114 3.5 8.75412 3.5 8.74711C3.5 8.74009 3.5 8.73308 3.5 8.72607C3.5 8.71905 3.5 8.71204 3.5 8.70503C3.5 8.69802 3.5 8.69101 3.5 8.68399C3.5 8.67698 3.5 8.66997 3.5 8.66296C3.5 8.65595 3.5 8.64894 3.5 8.64193C3.5 8.63492 3.5 8.62792 3.5 8.62091C3.5 8.6139 3.5 8.60689 3.5 8.59988C3.5 8.59288 3.5 8.58587 3.5 8.57886C3.5 8.57186 3.5 8.56485 3.5 8.55785C3.5 8.55084 3.5 8.54384 3.5 8.53683C3.5 8.52983 3.5 8.52282 3.5 8.51582C3.5 8.50882 3.5 8.50181 3.5 8.49481C3.5 8.48781 3.5 8.4808 3.5 8.4738C3.5 8.4668 3.5 8.4598 3.5 8.4528C3.5 8.44579 3.5 8.43879 3.5 8.43179C3.5 8.42479 3.5 8.41779 3.5 8.41079C3.5 8.40379 3.5 8.39679 3.5 8.38979C3.5 8.38279 3.5 8.37579 3.5 8.36879C3.5 8.36179 3.5 8.3548 3.5 8.3478C3.5 8.3408 3.5 8.3338 3.5 8.3268C3.5 8.31981 3.5 8.31281 3.5 8.30581C3.5 8.29881 3.5 8.29182 3.5 8.28482C3.5 8.27782 3.5 8.27082 3.5 8.26383C3.5 8.25683 3.5 8.24984 3.5 8.24284C3.5 8.23584 3.5 8.22885 3.5 8.22185C3.5 8.21486 3.5 8.20786 3.5 8.20086C3.5 8.19387 3.5 8.18687 3.5 8.17988C3.5 8.17288 3.5 8.16589 3.5 8.15889C3.5 8.1519 3.5 8.1449 3.5 8.13791C3.5 8.13091 3.5 8.12392 3.5 8.11693C3.5 8.10993 3.5 8.10294 3.5 8.09594C3.5 8.08895 3.5 8.08195 3.5 8.07496C3.5 8.06797 3.5 8.06097 3.5 8.05398C3.5 8.04698 3.5 8.03999 3.5 8.033C3.5 8.026 3.5 8.01901 3.5 8.01201C3.5 8.00502 3.5 7.99803 3.5 7.99103C3.5 7.98404 3.5 7.97704 3.5 7.97005C3.5 7.96306 3.5 7.95606 3.5 7.94907C3.5 7.94207 3.5 7.93508 3.5 7.92809C3.5 7.92109 3.5 7.9141 3.5 7.9071C3.5 7.90011 3.5 7.89311 3.5 7.88612C3.5 7.87913 3.5 7.87213 3.5 7.86514C3.5 7.85814 3.5 7.85115 3.5 7.84415C3.5 7.83716 3.5 7.83016 3.5 7.82317C3.5 7.81617 3.5 7.80918 3.5 7.80218C3.5 7.79519 3.5 7.78819 3.5 7.78119C3.5 7.7742 3.5 7.7672 3.5 7.76021C3.5 7.75321 3.5 7.74621 3.5 7.73922C3.5 7.73222 3.5 7.72522 3.5 7.71823C3.5 7.71123 3.5 7.70423 3.5 7.69724C3.5 7.69024 3.5 7.68324 3.5 7.67624C3.5 7.66925 3.5 7.66225 3.5 7.65525C3.5 7.64825 3.5 7.64125 3.5 7.63425C3.5 7.62726 3.5 7.62026 3.5 7.61326C3.5 7.60626 3.5 7.59926 3.5 7.59226C3.5 7.58526 3.5 7.57826 3.5 7.57126C3.5 7.56426 3.5 7.55725 3.5 7.55025C3.5 7.54325 3.5 7.53625 3.5 7.52925C3.5 7.52225 3.5 7.51524 3.5 7.50824C3.5 7.50124 3.5 7.49423 3.5 7.48723C3.5 7.48023 3.5 7.47322 3.5 7.46622C3.5 7.45921 3.5 7.45221 3.5 7.4452C3.5 7.4382 3.5 7.43119 3.5 7.42419C3.5 7.41718 3.5 7.41017 3.5 7.40317C3.5 7.39616 3.5 7.38915 3.5 7.38214C3.5 7.37514 3.5 7.36813 3.5 7.36112C3.5 7.35411 3.5 7.3471 3.5 7.34009C3.5 7.33308 3.5 7.32607 3.5 7.31906C3.5 7.31205 3.5 7.30504 3.5 7.29802C3.5 7.29101 3.5 7.284 3.5 7.27699C3.5 7.26997 3.5 7.26296 3.5 7.25595C3.5 7.24893 3.5 7.24192 3.5 7.2349C3.5 7.22789 3.5 7.22087 3.5 7.21385C3.5 7.20684 3.5 7.19982 3.5 7.1928C3.5 7.18578 3.5 7.17876 3.5 7.17175C3.5 7.16473 3.5 7.15771 3.5 7.15069C3.5 7.14367 3.5 7.13664 3.5 7.12962C3.5 7.1226 3.5 7.11558 3.5 7.10856C3.5 7.10153 3.5 7.09451 3.5 7.08748C3.5 7.08046 3.5 7.07343 3.5 7.06641C3.5 7.05938 3.5 7.05236 3.5 7.04533C3.5 7.0383 3.5 7.03127 3.5 7.02424C3.5 7.01721 3.5 7.01019 3.5 7.00315C3.5 6.99612 3.5 6.98909 3.5 6.98206C3.5 6.97503 3.5 6.968 3.5 6.96096C3.5 6.95393 3.5 6.94689 3.5 6.93986C3.5 6.93282 3.5 6.92579 3.5 6.91875C3.5 6.91172 3.5 6.90468 3.5 6.89764C3.5 6.8906 3.5 6.88356 3.5 6.87652C3.5 6.86948 3.5 6.86244 3.5 6.8554C3.5 6.84836 3.5 6.84131 3.5 6.83427C3.5 6.82723 3.5 6.82018 3.5 6.81314C3.5 6.80609 3.5 6.79904 3.5 6.792C3.5 6.78495 3.5 6.7779 3.5 6.77085C3.5 6.7638 3.5 6.75675 3.5 6.7497C3.5 6.74265 3.5 6.7356 3.5 6.72854C3.5 6.72149 3.5 6.71444 3.5 6.70738C3.5 6.70033 3.5 6.69327 3.5 6.68621C3.5 6.67916 3.5 6.6721 3.5 6.66504C3.5 6.65798 3.5 6.65092 3.5 6.64386C3.5 6.6368 3.5 6.62973 3.5 6.62267C3.5 6.61561 3.5 6.60854 3.5 6.60148C3.5 6.59441 3.5 6.58735 3.5 6.58028C3.5 6.57321 3.5 6.56614 3.5 6.55907C3.5 6.552 3.5 6.54493 3.5 6.53786C3.5 6.53079 3.5 6.52371 3.5 6.51664C3.5 6.50957 3.5 6.50249 3.5 6.49541C3.5 6.48834 3.5 6.48126 3.5 6.47418C3.5 6.4671 3.5 6.46002 3.5 6.45294C3.5 6.44586 3.5 6.43878 3.5 6.43169C3.5 6.42461 3.5 6.41752 3.5 6.41044C3.5 6.40335 3.5 6.39626 3.5 6.38917C3.5 6.38209 3.5 6.375 3.5 6.36791C3.5 6.36081 3.5 6.35372 3.5 6.34663C3.5 6.33953 3.5 6.33244 3.5 6.32534C3.5 6.31825 3.5 6.31115 3.5 6.30405C3.5 6.29695 3.5 6.28985 3.5 6.28275C3.5 6.27565 3.5 6.26855 3.5 6.26144C3.5 6.25434 3.5 6.24723 3.5 6.24013C3.5 6.23302 3.5 6.22591 3.5 6.2188C3.5 6.21169 3.5 6.20458 3.5 6.19747C3.5 6.19036 3.5 6.18324 3.5 6.17613C3.5 6.16901 3.5 6.1619 3.5 6.15478C3.5 6.14766 3.5 6.14054 3.5 6.13342C3.5 6.1263 3.5 6.11918 3.5 6.11206C3.5 6.10493 3.5 6.09781 3.5 6.09068C3.5 6.08355 3.5 6.07643 3.5 6.0693C3.5 6.06217 3.5 6.05504 3.5 6.0479C3.5 6.04077 3.5 6.03364 3.5 6.0265C3.5 6.01937 3.5 6.01223 3.5 6.00509C3.5 5.99795 3.5 5.99081 3.5 5.98367C3.5 5.97653 3.5 5.96939 3.5 5.96224C3.5 5.9551 3.5 5.94795 3.5 5.9408C3.5 5.93366 3.5 5.92651 3.5 5.91936C3.5 5.9122 3.5 5.90505 3.5 5.8979C3.5 5.89074 3.5 5.88359 3.5 5.87643C3.5 5.86927 3.5 5.86211 3.5 5.85495C3.5 5.84779 3.5 5.84063 3.5 5.83347C3.5 5.8263 3.5 5.81914 3.5 5.81197C3.5 5.8048 3.5 5.79763 3.5 5.79046C3.5 5.78329 3.5 5.77612 3.5 5.76895C3.5 5.76177 3.5 5.7546 3.5 5.74742C3.5 5.74024 3.5 5.73306 3.5 5.72588C3.5 5.7187 3.5 5.71152 3.5 5.70433C3.5 5.69715 3.5 5.68996 3.5 5.68277C3.5 5.67559 3.5 5.6684 3.5 5.6612C3.5 5.65401 3.5 5.64682 3.5 5.63962C3.5 5.63243 3.5 5.62523 3.5 5.61803C3.5 5.61083 3.5 5.60363 3.5 5.59643C3.5 5.58923 3.5 5.58203 3.5 5.57482C3.5 5.56761 3.5 5.5604 3.5 5.55319C3.5 5.54599 3.5 5.53877 3.5 5.53156C3.5 5.52435 3.5 5.51713 3.5 5.50991C3.5 5.5027 3.5 5.49548 3.5 5.48826C3.5 5.48103 3.5 5.47381 3.5 5.46659C3.5 5.45936 3.5 5.45213 3.5 5.4449C3.5 5.43768 3.5 5.43044 3.5 5.42321C3.5 5.41598 3.5 5.40874 3.5 5.40151C3.5 5.39427 3.5 5.38703 3.5 5.37979C3.5 5.37255 3.5 5.36531 3.5 5.35806C3.5 5.35082 3.5 5.34357 3.5 5.33632C3.5 5.32907 3.5 5.32182 3.5 5.31457C3.5 5.30732 3.5 5.30006 3.5 5.2928C3.5 5.28555 3.5 5.27829 3.5 5.27103C3.5 5.26377 3.5 5.2565 3.5 5.24924C3.5 5.24197 3.5 5.2347 3.5 5.22743C3.5 5.22016 3.5 5.21289 3.5 5.20562C3.5 5.19835 3.5 5.19107 3.5 5.18379C3.5 5.17651 3.5 5.16923 3.5 5.16195C3.5 5.15467 3.5 5.14738 3.5 5.1401C3.5 5.13281 3.5 5.12552 3.5 5.11823C3.5 5.11094 3.5 5.10364 3.5 5.09635C3.5 5.08905 3.5 5.08176 3.5 5.07446C3.5 5.06716 3.5 5.05985 3.5 5.05255C3.5 5.04524 3.5 5.03794 3.5 5.03063C3.5 5.02332 3.5 5.01601 3.5 5.0087C3.5 5.00138 3.5 4.99407 3.5 4.98675C3.5 4.97943 3.5 4.97211 3.5 4.96479C3.5 4.95746 3.5 4.95014 3.5 4.94281C3.5 4.93548 3.5 4.92816 3.5 4.92082C3.5 4.91349 3.5 4.90616 3.5 4.89882C3.5 4.89148 3.5 4.88414 3.5 4.8768C3.5 4.86946 3.5 4.86212 3.5 4.85477C3.5 4.84743 3.5 4.84008 3.5 4.83273C3.5 4.82538 3.5 4.81802 3.5 4.81067C3.5 4.80331 3.5 4.79595 3.5 4.78859C3.5 4.78123 3.5 4.77387 3.5 4.7665C3.5 4.75914 3.5 4.75177 3.5 4.7444C3.5 4.73703 3.5 4.72965 3.5 4.72228C3.5 4.7149 3.5 4.70753 3.5 4.70015C3.5 4.69277 3.5 4.68538 3.5 4.678C3.5 4.67061 3.5 4.66322 3.5 4.65583C3.5 4.64844 3.5 4.64105 3.5 4.63365C3.5 4.62626 3.5 4.61886 3.5 4.61146C3.5 4.60406 3.5 4.59666 3.5 4.58925C3.5 4.58184 3.5 4.57444 3.5 4.56702C3.5 4.55961 3.5 4.5522 3.5 4.54478C3.5 4.53737 3.5 4.52995 3.5 4.52253C3.5 4.51511 3.5 4.50768 3.5 4.50026H2.5C2.5 4.50768 2.5 4.51511 2.5 4.52253C2.5 4.52995 2.5 4.53737 2.5 4.54478C2.5 4.5522 2.5 4.55961 2.5 4.56702C2.5 4.57444 2.5 4.58184 2.5 4.58925C2.5 4.59666 2.5 4.60406 2.5 4.61146C2.5 4.61886 2.5 4.62626 2.5 4.63365C2.5 4.64105 2.5 4.64844 2.5 4.65583C2.5 4.66322 2.5 4.67061 2.5 4.678C2.5 4.68538 2.5 4.69277 2.5 4.70015C2.5 4.70753 2.5 4.7149 2.5 4.72228C2.5 4.72965 2.5 4.73703 2.5 4.7444C2.5 4.75177 2.5 4.75914 2.5 4.7665C2.5 4.77387 2.5 4.78123 2.5 4.78859C2.5 4.79595 2.5 4.80331 2.5 4.81067C2.5 4.81802 2.5 4.82538 2.5 4.83273C2.5 4.84008 2.5 4.84743 2.5 4.85477C2.5 4.86212 2.5 4.86946 2.5 4.8768C2.5 4.88414 2.5 4.89148 2.5 4.89882C2.5 4.90616 2.5 4.91349 2.5 4.92082C2.5 4.92816 2.5 4.93548 2.5 4.94281C2.5 4.95014 2.5 4.95746 2.5 4.96479C2.5 4.97211 2.5 4.97943 2.5 4.98675C2.5 4.99407 2.5 5.00138 2.5 5.0087C2.5 5.01601 2.5 5.02332 2.5 5.03063C2.5 5.03794 2.5 5.04524 2.5 5.05255C2.5 5.05985 2.5 5.06716 2.5 5.07446C2.5 5.08176 2.5 5.08905 2.5 5.09635C2.5 5.10364 2.5 5.11094 2.5 5.11823C2.5 5.12552 2.5 5.13281 2.5 5.1401C2.5 5.14738 2.5 5.15467 2.5 5.16195C2.5 5.16923 2.5 5.17651 2.5 5.18379C2.5 5.19107 2.5 5.19835 2.5 5.20562C2.5 5.21289 2.5 5.22016 2.5 5.22743C2.5 5.2347 2.5 5.24197 2.5 5.24924C2.5 5.2565 2.5 5.26377 2.5 5.27103C2.5 5.27829 2.5 5.28555 2.5 5.2928C2.5 5.30006 2.5 5.30732 2.5 5.31457C2.5 5.32182 2.5 5.32907 2.5 5.33632C2.5 5.34357 2.5 5.35082 2.5 5.35806C2.5 5.36531 2.5 5.37255 2.5 5.37979C2.5 5.38703 2.5 5.39427 2.5 5.40151C2.5 5.40874 2.5 5.41598 2.5 5.42321C2.5 5.43044 2.5 5.43768 2.5 5.4449C2.5 5.45213 2.5 5.45936 2.5 5.46659C2.5 5.47381 2.5 5.48103 2.5 5.48826C2.5 5.49548 2.5 5.5027 2.5 5.50991C2.5 5.51713 2.5 5.52435 2.5 5.53156C2.5 5.53877 2.5 5.54599 2.5 5.55319C2.5 5.5604 2.5 5.56761 2.5 5.57482C2.5 5.58203 2.5 5.58923 2.5 5.59643C2.5 5.60363 2.5 5.61083 2.5 5.61803C2.5 5.62523 2.5 5.63243 2.5 5.63962C2.5 5.64682 2.5 5.65401 2.5 5.6612C2.5 5.6684 2.5 5.67559 2.5 5.68277C2.5 5.68996 2.5 5.69715 2.5 5.70433C2.5 5.71152 2.5 5.7187 2.5 5.72588C2.5 5.73306 2.5 5.74024 2.5 5.74742C2.5 5.7546 2.5 5.76177 2.5 5.76895C2.5 5.77612 2.5 5.78329 2.5 5.79046C2.5 5.79763 2.5 5.8048 2.5 5.81197C2.5 5.81914 2.5 5.8263 2.5 5.83347C2.5 5.84063 2.5 5.84779 2.5 5.85495C2.5 5.86211 2.5 5.86927 2.5 5.87643C2.5 5.88359 2.5 5.89074 2.5 5.8979C2.5 5.90505 2.5 5.9122 2.5 5.91936C2.5 5.92651 2.5 5.93366 2.5 5.9408C2.5 5.94795 2.5 5.9551 2.5 5.96224C2.5 5.96939 2.5 5.97653 2.5 5.98367C2.5 5.99081 2.5 5.99795 2.5 6.00509C2.5 6.01223 2.5 6.01937 2.5 6.0265C2.5 6.03364 2.5 6.04077 2.5 6.0479C2.5 6.05504 2.5 6.06217 2.5 6.0693C2.5 6.07643 2.5 6.08355 2.5 6.09068C2.5 6.09781 2.5 6.10493 2.5 6.11206C2.5 6.11918 2.5 6.1263 2.5 6.13342C2.5 6.14054 2.5 6.14766 2.5 6.15478C2.5 6.1619 2.5 6.16901 2.5 6.17613C2.5 6.18324 2.5 6.19036 2.5 6.19747C2.5 6.20458 2.5 6.21169 2.5 6.2188C2.5 6.22591 2.5 6.23302 2.5 6.24013C2.5 6.24723 2.5 6.25434 2.5 6.26144C2.5 6.26855 2.5 6.27565 2.5 6.28275C2.5 6.28985 2.5 6.29695 2.5 6.30405C2.5 6.31115 2.5 6.31825 2.5 6.32534C2.5 6.33244 2.5 6.33953 2.5 6.34663C2.5 6.35372 2.5 6.36081 2.5 6.36791C2.5 6.375 2.5 6.38209 2.5 6.38917C2.5 6.39626 2.5 6.40335 2.5 6.41044C2.5 6.41752 2.5 6.42461 2.5 6.43169C2.5 6.43878 2.5 6.44586 2.5 6.45294C2.5 6.46002 2.5 6.4671 2.5 6.47418C2.5 6.48126 2.5 6.48834 2.5 6.49541C2.5 6.50249 2.5 6.50957 2.5 6.51664C2.5 6.52371 2.5 6.53079 2.5 6.53786C2.5 6.54493 2.5 6.552 2.5 6.55907C2.5 6.56614 2.5 6.57321 2.5 6.58028C2.5 6.58735 2.5 6.59441 2.5 6.60148C2.5 6.60854 2.5 6.61561 2.5 6.62267C2.5 6.62973 2.5 6.6368 2.5 6.64386C2.5 6.65092 2.5 6.65798 2.5 6.66504C2.5 6.6721 2.5 6.67916 2.5 6.68621C2.5 6.69327 2.5 6.70033 2.5 6.70738C2.5 6.71444 2.5 6.72149 2.5 6.72854C2.5 6.7356 2.5 6.74265 2.5 6.7497C2.5 6.75675 2.5 6.7638 2.5 6.77085C2.5 6.7779 2.5 6.78495 2.5 6.792C2.5 6.79904 2.5 6.80609 2.5 6.81314C2.5 6.82018 2.5 6.82723 2.5 6.83427C2.5 6.84131 2.5 6.84836 2.5 6.8554C2.5 6.86244 2.5 6.86948 2.5 6.87652C2.5 6.88356 2.5 6.8906 2.5 6.89764C2.5 6.90468 2.5 6.91172 2.5 6.91875C2.5 6.92579 2.5 6.93282 2.5 6.93986C2.5 6.94689 2.5 6.95393 2.5 6.96096C2.5 6.968 2.5 6.97503 2.5 6.98206C2.5 6.98909 2.5 6.99612 2.5 7.00315C2.5 7.01019 2.5 7.01721 2.5 7.02424C2.5 7.03127 2.5 7.0383 2.5 7.04533C2.5 7.05236 2.5 7.05938 2.5 7.06641C2.5 7.07343 2.5 7.08046 2.5 7.08748C2.5 7.09451 2.5 7.10153 2.5 7.10856C2.5 7.11558 2.5 7.1226 2.5 7.12962C2.5 7.13664 2.5 7.14367 2.5 7.15069C2.5 7.15771 2.5 7.16473 2.5 7.17175C2.5 7.17876 2.5 7.18578 2.5 7.1928C2.5 7.19982 2.5 7.20684 2.5 7.21385C2.5 7.22087 2.5 7.22789 2.5 7.2349C2.5 7.24192 2.5 7.24893 2.5 7.25595C2.5 7.26296 2.5 7.26997 2.5 7.27699C2.5 7.284 2.5 7.29101 2.5 7.29802C2.5 7.30504 2.5 7.31205 2.5 7.31906C2.5 7.32607 2.5 7.33308 2.5 7.34009C2.5 7.3471 2.5 7.35411 2.5 7.36112C2.5 7.36813 2.5 7.37514 2.5 7.38214C2.5 7.38915 2.5 7.39616 2.5 7.40317C2.5 7.41017 2.5 7.41718 2.5 7.42419C2.5 7.43119 2.5 7.4382 2.5 7.4452C2.5 7.45221 2.5 7.45921 2.5 7.46622C2.5 7.47322 2.5 7.48023 2.5 7.48723C2.5 7.49423 2.5 7.50124 2.5 7.50824C2.5 7.51524 2.5 7.52225 2.5 7.52925C2.5 7.53625 2.5 7.54325 2.5 7.55025C2.5 7.55725 2.5 7.56426 2.5 7.57126C2.5 7.57826 2.5 7.58526 2.5 7.59226C2.5 7.59926 2.5 7.60626 2.5 7.61326C2.5 7.62026 2.5 7.62726 2.5 7.63425C2.5 7.64125 2.5 7.64825 2.5 7.65525C2.5 7.66225 2.5 7.66925 2.5 7.67624C2.5 7.68324 2.5 7.69024 2.5 7.69724C2.5 7.70423 2.5 7.71123 2.5 7.71823C2.5 7.72522 2.5 7.73222 2.5 7.73922C2.5 7.74621 2.5 7.75321 2.5 7.76021C2.5 7.7672 2.5 7.7742 2.5 7.78119C2.5 7.78819 2.5 7.79519 2.5 7.80218C2.5 7.80918 2.5 7.81617 2.5 7.82317C2.5 7.83016 2.5 7.83716 2.5 7.84415C2.5 7.85115 2.5 7.85814 2.5 7.86514C2.5 7.87213 2.5 7.87913 2.5 7.88612C2.5 7.89311 2.5 7.90011 2.5 7.9071C2.5 7.9141 2.5 7.92109 2.5 7.92809C2.5 7.93508 2.5 7.94207 2.5 7.94907C2.5 7.95606 2.5 7.96306 2.5 7.97005C2.5 7.97704 2.5 7.98404 2.5 7.99103C2.5 7.99803 2.5 8.00502 2.5 8.01201C2.5 8.01901 2.5 8.026 2.5 8.033C2.5 8.03999 2.5 8.04698 2.5 8.05398C2.5 8.06097 2.5 8.06797 2.5 8.07496C2.5 8.08195 2.5 8.08895 2.5 8.09594C2.5 8.10294 2.5 8.10993 2.5 8.11693C2.5 8.12392 2.5 8.13091 2.5 8.13791C2.5 8.1449 2.5 8.1519 2.5 8.15889C2.5 8.16589 2.5 8.17288 2.5 8.17988C2.5 8.18687 2.5 8.19387 2.5 8.20086C2.5 8.20786 2.5 8.21486 2.5 8.22185C2.5 8.22885 2.5 8.23584 2.5 8.24284C2.5 8.24984 2.5 8.25683 2.5 8.26383C2.5 8.27082 2.5 8.27782 2.5 8.28482C2.5 8.29182 2.5 8.29881 2.5 8.30581C2.5 8.31281 2.5 8.31981 2.5 8.3268C2.5 8.3338 2.5 8.3408 2.5 8.3478C2.5 8.3548 2.5 8.36179 2.5 8.36879C2.5 8.37579 2.5 8.38279 2.5 8.38979C2.5 8.39679 2.5 8.40379 2.5 8.41079C2.5 8.41779 2.5 8.42479 2.5 8.43179C2.5 8.43879 2.5 8.44579 2.5 8.4528C2.5 8.4598 2.5 8.4668 2.5 8.4738C2.5 8.4808 2.5 8.48781 2.5 8.49481C2.5 8.50181 2.5 8.50882 2.5 8.51582C2.5 8.52282 2.5 8.52983 2.5 8.53683C2.5 8.54384 2.5 8.55084 2.5 8.55785C2.5 8.56485 2.5 8.57186 2.5 8.57886C2.5 8.58587 2.5 8.59288 2.5 8.59988C2.5 8.60689 2.5 8.6139 2.5 8.62091C2.5 8.62792 2.5 8.63492 2.5 8.64193C2.5 8.64894 2.5 8.65595 2.5 8.66296C2.5 8.66997 2.5 8.67698 2.5 8.68399C2.5 8.69101 2.5 8.69802 2.5 8.70503C2.5 8.71204 2.5 8.71905 2.5 8.72607C2.5 8.73308 2.5 8.74009 2.5 8.74711C2.5 8.75412 2.5 8.76114 2.5 8.76815C2.5 8.77517 2.5 8.78219 2.5 8.7892C2.5 8.79622 2.5 8.80324 2.5 8.81026C2.5 8.81727 2.5 8.82429 2.5 8.83131C2.5 8.83833 2.5 8.84535 2.5 8.85237C2.5 8.85939 2.5 8.86641 2.5 8.87344C2.5 8.88046 2.5 8.88748 2.5 8.8945C2.5 8.90153 2.5 8.90855 2.5 8.91558C2.5 8.9226 2.5 8.92963 2.5 8.93665C2.5 8.94368 2.5 8.9507 2.5 8.95773C2.5 8.96476 2.5 8.97179 2.5 8.97882C2.5 8.98585 2.5 8.99288 2.5 8.99991C2.5 9.00694 2.5 9.01397 2.5 9.021C2.5 9.02803 2.5 9.03507 2.5 9.0421C2.5 9.04913 2.5 9.05617 2.5 9.0632C2.5 9.07024 2.5 9.07728 2.5 9.08431C2.5 9.09135 2.5 9.09839 2.5 9.10543C2.5 9.11246 2.5 9.1195 2.5 9.12654C2.5 9.13359 2.5 9.14063 2.5 9.14767C2.5 9.15471 2.5 9.16175 2.5 9.1688C2.5 9.17584 2.5 9.18289 2.5 9.18993C2.5 9.19698 2.5 9.20403 2.5 9.21107C2.5 9.21812 2.5 9.22517 2.5 9.23222C2.5 9.23927 2.5 9.24632 2.5 9.25337C2.5 9.26042 2.5 9.26747 2.5 9.27453C2.5 9.28158 2.5 9.28864 2.5 9.29569C2.5 9.30275 2.5 9.3098 2.5 9.31686C2.5 9.32392 2.5 9.33098 2.5 9.33804C2.5 9.34509 2.5 9.35216 2.5 9.35922C2.5 9.36628 2.5 9.37334 2.5 9.3804C2.5 9.38747 2.5 9.39453 2.5 9.4016C2.5 9.40866 2.5 9.41573 2.5 9.4228C2.5 9.42987 2.5 9.43694 2.5 9.44401C2.5 9.45108 2.5 9.45815 2.5 9.46522C2.5 9.47229 2.5 9.47937 2.5 9.48644C2.5 9.49352 2.5 9.50059 2.5 9.50767C2.5 9.51475 2.5 9.52182 2.5 9.5289C2.5 9.53598 2.5 9.54306 2.5 9.55014C2.5 9.55723 2.5 9.56431 2.5 9.57139C2.5 9.57848 2.5 9.58556 2.5 9.59265C2.5 9.59974 2.5 9.60682 2.5 9.61391C2.5 9.621 2.5 9.62809 2.5 9.63518C2.5 9.64227 2.5 9.64937 2.5 9.65646C2.5 9.66355 2.5 9.67065 2.5 9.67775C2.5 9.68484 2.5 9.69194 2.5 9.69904C2.5 9.70614 2.5 9.71324 2.5 9.72034C2.5 9.72744 2.5 9.73455 2.5 9.74165C2.5 9.74876 2.5 9.75586 2.5 9.76297C2.5 9.77008 2.5 9.77718 2.5 9.78429C2.5 9.7914 2.5 9.79851 2.5 9.80563C2.5 9.81274 2.5 9.81985 2.5 9.82697C2.5 9.83408 2.5 9.8412 2.5 9.84832C2.5 9.85544 2.5 9.86256 2.5 9.86968C2.5 9.8768 2.5 9.88392 2.5 9.89105C2.5 9.89817 2.5 9.9053 2.5 9.91242C2.5 9.91955 2.5 9.92668 2.5 9.93381C2.5 9.94094 2.5 9.94807 2.5 9.9552C2.5 9.96233 2.5 9.96947 2.5 9.9766C2.5 9.98374 2.5 9.99088 2.5 9.99802C2.5 10.0052 2.5 10.0123 2.5 10.0194C2.5 10.0266 2.5 10.0337 2.5 10.0409C2.5 10.048 2.5 10.0552 2.5 10.0623C2.5 10.0695 2.5 10.0766 2.5 10.0838C2.5 10.0909 2.5 10.0981 2.5 10.1052C2.5 10.1124 2.5 10.1195 2.5 10.1267C2.5 10.1338 2.5 10.141 2.5 10.1482C2.5 10.1553 2.5 10.1625 2.5 10.1697C2.5 10.1768 2.5 10.184 2.5 10.1912C2.5 10.1983 2.5 10.2055 2.5 10.2127C2.5 10.2198 2.5 10.227 2.5 10.2342C2.5 10.2414 2.5 10.2485 2.5 10.2557C2.5 10.2629 2.5 10.2701 2.5 10.2772C2.5 10.2844 2.5 10.2916 2.5 10.2988C2.5 10.306 2.5 10.3132 2.5 10.3204C2.5 10.3275 2.5 10.3347 2.5 10.3419C2.5 10.3491 2.5 10.3563 2.5 10.3635C2.5 10.3707 2.5 10.3779 2.5 10.3851C2.5 10.3923 2.5 10.3995 2.5 10.4067C2.5 10.4139 2.5 10.4211 2.5 10.4283C2.5 10.4355 2.5 10.4427 2.5 10.4499C2.5 10.4572 2.5 10.4644 2.5 10.4716C2.5 10.4788 2.5 10.486 2.5 10.4932C2.5 10.5004 2.5 10.5077 2.5 10.5149C2.5 10.5221 2.5 10.5293 2.5 10.5366C2.5 10.5438 2.5 10.551 2.5 10.5582C2.5 10.5655 2.5 10.5727 2.5 10.5799C2.5 10.5872 2.5 10.5944 2.5 10.6016C2.5 10.6089 2.5 10.6161 2.5 10.6234C2.5 10.6306 2.5 10.6378 2.5 10.6451C2.5 10.6523 2.5 10.6596 2.5 10.6668C2.5 10.6741 2.5 10.6813 2.5 10.6886C2.5 10.6958 2.5 10.7031 2.5 10.7104C2.5 10.7176 2.5 10.7249 2.5 10.7321C2.5 10.7394 2.5 10.7467 2.5 10.7539C2.5 10.7612 2.5 10.7685 2.5 10.7757C2.5 10.783 2.5 10.7903 2.5 10.7975C2.5 10.8048 2.5 10.8121 2.5 10.8194C2.5 10.8267 2.5 10.8339 2.5 10.8412C2.5 10.8485 2.5 10.8558 2.5 10.8631C2.5 10.8704 2.5 10.8777 2.5 10.8849C2.5 10.8922 2.5 10.8995 2.5 10.9068C2.5 10.9141 2.5 10.9214 2.5 10.9287C2.5 10.936 2.5 10.9433 2.5 10.9506C2.5 10.9579 2.5 10.9652 2.5 10.9726C2.5 10.9799 2.5 10.9872 2.5 10.9945C2.5 11.0018 2.5 11.0091 2.5 11.0164C2.5 11.0238 2.5 11.0311 2.5 11.0384C2.5 11.0457 2.5 11.0531 2.5 11.0604C2.5 11.0677 2.5 11.075 2.5 11.0824C2.5 11.0897 2.5 11.097 2.5 11.1044C2.5 11.1117 2.5 11.1191 2.5 11.1264C2.5 11.1337 2.5 11.1411 2.5 11.1484C2.5 11.1558 2.5 11.1631 2.5 11.1705C2.5 11.1778 2.5 11.1852 2.5 11.1925C2.5 11.1999 2.5 11.2073 2.5 11.2146C2.5 11.222 2.5 11.2293 2.5 11.2367C2.5 11.2441 2.5 11.2514 2.5 11.2588C2.5 11.2662 2.5 11.2736 2.5 11.2809C2.5 11.2883 2.5 11.2957 2.5 11.3031C2.5 11.3104 2.5 11.3178 2.5 11.3252C2.5 11.3326 2.5 11.34 2.5 11.3474C2.5 11.3548 2.5 11.3622 2.5 11.3696C2.5 11.377 2.5 11.3844 2.5 11.3918C2.5 11.3992 2.5 11.4066 2.5 11.414C2.5 11.4214 2.5 11.4288 2.5 11.4362C2.5 11.4436 2.5 11.451 2.5 11.4584C2.5 11.4659 2.5 11.4733 2.5 11.4807C2.5 11.4881 2.5 11.4956 2.5 11.503C2.5 11.5104 2.5 11.5178 2.5 11.5253C2.5 11.5327 2.5 11.5401 2.5 11.5476C2.5 11.555 2.5 11.5625 2.5 11.5699C2.5 11.5773 2.5 11.5848 2.5 11.5922C2.5 11.5997 2.5 11.6071 2.5 11.6146C2.5 11.622 2.5 11.6295 2.5 11.637C2.5 11.6444 2.5 11.6519 2.5 11.6594C2.5 11.6668 2.5 11.6743 2.5 11.6818C2.5 11.6892 2.5 11.6967 2.5 11.7042C2.5 11.7117 2.5 11.7191 2.5 11.7266C2.5 11.7341 2.5 11.7416 2.5 11.7491C2.5 11.7566 2.5 11.764 2.5 11.7715C2.5 11.779 2.5 11.7865 2.5 11.794C2.5 11.8015 2.5 11.809 2.5 11.8165C2.5 11.824 2.5 11.8316 2.5 11.8391C2.5 11.8466 2.5 11.8541 2.5 11.8616C2.5 11.8691 2.5 11.8766 2.5 11.8842C2.5 11.8917 2.5 11.8992 2.5 11.9067C2.5 11.9143 2.5 11.9218 2.5 11.9293C2.5 11.9369 2.5 11.9444 2.5 11.9519C2.5 11.9595 2.5 11.967 2.5 11.9746C2.5 11.9821 2.5 11.9897 2.5 11.9972C2.5 12.0048 2.5 12.0123 2.5 12.0199C2.5 12.0274 2.5 12.035 2.5 12.0426C2.5 12.0501 2.5 12.0577 2.5 12.0653C2.5 12.0728 2.5 12.0804 2.5 12.088C2.5 12.0956 2.5 12.1031 2.5 12.1107C2.5 12.1183 2.5 12.1259 2.5 12.1335C2.5 12.1411 2.5 12.1487 2.5 12.1563C2.5 12.1639 2.5 12.1714 2.5 12.179C2.5 12.1867 2.5 12.1943 2.5 12.2019C2.5 12.2095 2.5 12.2171 2.5 12.2247C2.5 12.2323 2.5 12.2399 2.5 12.2475C2.5 12.2552 2.5 12.2628 2.5 12.2704C2.5 12.278 2.5 12.2857 2.5 12.2933C2.5 12.3009 2.5 12.3086 2.5 12.3162C2.5 12.3239 2.5 12.3315 2.5 12.3391C2.5 12.3468 2.5 12.3544 2.5 12.3621C2.5 12.3697 2.5 12.3774 2.5 12.3851C2.5 12.3927 2.5 12.4004 2.5 12.408C2.5 12.4157 2.5 12.4234 2.5 12.431C2.5 12.4387 2.5 12.4464 2.5 12.4541C2.5 12.4618 2.5 12.4694 2.5 12.4771C2.5 12.4848 2.5 12.4925 2.5 12.5002C2.5 12.5079 2.5 12.5156 2.5 12.5233C2.5 12.531 2.5 12.5387 2.5 12.5464C2.5 12.5541 2.5 12.5618 2.5 12.5695C2.5 12.5772 2.5 12.5849 2.5 12.5927C2.5 12.6004 2.5 12.6081 2.5 12.6158C2.5 12.6235 2.5 12.6313 2.5 12.639C2.5 12.6467 2.5 12.6545 2.5 12.6622C2.5 12.67 2.5 12.6777 2.5 12.6855C2.5 12.6932 2.5 12.7009 2.5 12.7087C2.5 12.7165 2.5 12.7242 2.5 12.732C2.5 12.7397 2.5 12.7475 2.5 12.7553C2.5 12.763 2.5 12.7708 2.5 12.7786C2.5 12.7864 2.5 12.7941 2.5 12.8019C2.5 12.8097 2.5 12.8175 2.5 12.8253C2.5 12.8331 2.5 12.8409 2.5 12.8487C2.5 12.8565 2.5 12.8643 2.5 12.8721C2.5 12.8799 2.5 12.8877 2.5 12.8955C2.5 12.9033 2.5 12.9111 2.5 12.9189C2.5 12.9267 2.5 12.9346 2.5 12.9424C2.5 12.9502 2.5 12.958 2.5 12.9659C2.5 12.9737 2.5 12.9816 2.5 12.9894C2.5 12.9972 2.5 13.0051 2.5 13.0129C2.5 13.0208 2.5 13.0286 2.5 13.0365C2.5 13.0443 2.5 13.0522 2.5 13.0601C2.5 13.0679 2.5 13.0758 2.5 13.0837C2.5 13.0915 2.5 13.0994 2.5 13.1073C2.5 13.1152 2.5 13.123 2.5 13.1309C2.5 13.1388 2.5 13.1467 2.5 13.1546C2.5 13.1625 2.5 13.1704 2.5 13.1783C2.5 13.1862 2.5 13.1941 2.5 13.202C2.5 13.2099 2.5 13.2178 2.5 13.2257C2.5 13.2337 2.5 13.2416 2.5 13.2495C2.5 13.2574 2.5 13.2653 2.5 13.2733C2.5 13.2812 2.5 13.2891 2.5 13.2971C2.5 13.305 2.5 13.313 2.5 13.3209C2.5 13.3289 2.5 13.3368 2.5 13.3448C2.5 13.3527 2.5 13.3607 2.5 13.3686C2.5 13.3766 2.5 13.3846 2.5 13.3926C2.5 13.4005 2.5 13.4085 2.5 13.4165C2.5 13.4245 2.5 13.4324 2.5 13.4404C2.5 13.4484 2.5 13.4564 2.5 13.4644C2.5 13.4724 2.5 13.4804 2.5 13.4884C2.5 13.4964 2.5 13.5044 2.5 13.5124C2.5 13.5204 2.5 13.5284 2.5 13.5365C2.5 13.5445 2.5 13.5525 2.5 13.5605C2.5 13.5686 2.5 13.5766 2.5 13.5846C2.5 13.5927 2.5 13.6007 2.5 13.6088C2.5 13.6168 2.5 13.6248 2.5 13.6329C2.5 13.6409 2.5 13.649 2.5 13.6571C2.5 13.6651 2.5 13.6732 2.5 13.6813C2.5 13.6893 2.5 13.6974 2.5 13.7055C2.5 13.7136 2.5 13.7216 2.5 13.7297C2.5 13.7378 2.5 13.7459 2.5 13.754C2.5 13.7621 2.5 13.7702 2.5 13.7783C2.5 13.7864 2.5 13.7945 2.5 13.8026C2.5 13.8107 2.5 13.8188 2.5 13.827C2.5 13.8351 2.5 13.8432 2.5 13.8513C2.5 13.8595 2.5 13.8676 2.5 13.8757C2.5 13.8839 2.5 13.892 2.5 13.9001C2.5 13.9083 2.5 13.9164 2.5 13.9246C2.5 13.9328 2.5 13.9409 2.5 13.9491C2.5 13.9572 2.5 13.9654 2.5 13.9736C2.5 13.9817 2.5 13.9899 2.5 13.9981C2.5 14.0063 2.5 14.0145 2.5 14.0227C2.5 14.0308 2.5 14.039 2.5 14.0472C2.5 14.0554 2.5 14.0636 2.5 14.0718C2.5 14.0801 2.5 14.0883 2.5 14.0965C2.5 14.1047 2.5 14.1129 2.5 14.1211C2.5 14.1294 2.5 14.1376 2.5 14.1458C2.5 14.1541 2.5 14.1623 2.5 14.1705C2.5 14.1788 2.5 14.187 2.5 14.1953C2.5 14.2035 2.5 14.2118 2.5 14.22C2.5 14.2283 2.5 14.2366 2.5 14.2448C2.5 14.2531 2.5 14.2614 2.5 14.2697C2.5 14.2779 2.5 14.2862 2.5 14.2945C2.5 14.3028 2.5 14.3111 2.5 14.3194C2.5 14.3277 2.5 14.336 2.5 14.3443C2.5 14.3526 2.5 14.3609 2.5 14.3692C2.5 14.3775 2.5 14.3859 2.5 14.3942C2.5 14.4025 2.5 14.4108 2.5 14.4192C2.5 14.4275 2.5 14.4359 2.5 14.4442C2.5 14.4525 2.5 14.4609 2.5 14.4692C2.5 14.4776 2.5 14.4859 2.5 14.4943C2.5 14.5027 2.5 14.511 2.5 14.5194C2.5 14.5278 2.5 14.5362 2.5 14.5445C2.5 14.5529 2.5 14.5613 2.5 14.5697C2.5 14.5781 2.5 14.5865 2.5 14.5949C2.5 14.6033 2.5 14.6117 2.5 14.6201C2.5 14.6285 2.5 14.6369 2.5 14.6453C2.5 14.6538 2.5 14.6622 2.5 14.6706C2.5 14.679 2.5 14.6875 2.5 14.6959C2.5 14.7044 2.5 14.7128 2.5 14.7212C2.5 14.7297 2.5 14.7381 2.5 14.7466C2.5 14.7551 2.5 14.7635 2.5 14.772C2.5 14.7805 2.5 14.7889 2.5 14.7974C2.5 14.8059 2.5 14.8144 2.5 14.8229C2.5 14.8313 2.5 14.8398 2.5 14.8483C2.5 14.8568 2.5 14.8653 2.5 14.8738C2.5 14.8823 2.5 14.8909 2.5 14.8994C2.5 14.9079 2.5 14.9164 2.5 14.9249C2.5 14.9335 2.5 14.942 2.5 14.9505C2.5 14.9591 2.5 14.9676 2.5 14.9762C2.5 14.9847 2.5 14.9933 2.5 15.0018C2.5 15.0104 2.5 15.0189 2.5 15.0275C2.5 15.0361 2.5 15.0446 2.5 15.0532C2.5 15.0618 2.5 15.0704 2.5 15.079C2.5 15.0876 2.5 15.0961 2.5 15.1047C2.5 15.1133 2.5 15.1219 2.5 15.1306C2.5 15.1392 2.5 15.1478 2.5 15.1564C2.5 15.165 2.5 15.1736 2.5 15.1823C2.5 15.1909 2.5 15.1995 2.5 15.2082C2.5 15.2168 2.5 15.2254 2.5 15.2341C2.5 15.2427 2.5 15.2514 2.5 15.2601C2.5 15.2687 2.5 15.2774 2.5 15.286C2.5 15.2947 2.5 15.3034 2.5 15.3121C2.5 15.3207 2.5 15.3294 2.5 15.3381C2.5 15.3468 2.5 15.3555 2.5 15.3642C2.5 15.3729 2.5 15.3816 2.5 15.3903C2.5 15.399 2.5 15.4078 2.5 15.4165C2.5 15.4252 2.5 15.4339 2.5 15.4427C2.5 15.4514 2.5 15.4601 2.5 15.4689C2.5 15.4776 2.5 15.4864 2.5 15.4951C2.5 15.5039 2.5 15.5126 2.5 15.5214C2.5 15.5302 2.5 15.5389 2.5 15.5477C2.5 15.5565 2.5 15.5653 2.5 15.5741C2.5 15.5828 2.5 15.5916 2.5 15.6004C2.5 15.6092 2.5 15.618 2.5 15.6268C2.5 15.6356 2.5 15.6445 2.5 15.6533C2.5 15.6621 2.5 15.6709 2.5 15.6798C2.5 15.6886 2.5 15.6974 2.5 15.7063C2.5 15.7151 2.5 15.7239 2.5 15.7328C2.5 15.7416 2.5 15.7505 2.5 15.7594C2.5 15.7682 2.5 15.7771 2.5 15.786C2.5 15.7948 2.5 15.8037 2.5 15.8126C2.5 15.8215 2.5 15.8304 2.5 15.8393C2.5 15.8482 2.5 15.8571 2.5 15.866C2.5 15.8749 2.5 15.8838 2.5 15.8927C2.5 15.9016 2.5 15.9106 2.5 15.9195C2.5 15.9284 2.5 15.9374 2.5 15.9463C2.5 15.9552 2.5 15.9642 2.5 15.9731C2.5 15.9821 2.5 15.991 2.5 16H3.5Z" fill="#2A2A2A"/>
</svg>
