<svg width="24" height="24" viewBox="0 0 24 24" fill="none" xmlns="http://www.w3.org/2000/svg">
<path d="M11.9999 0.333496C5.55992 0.333496 0.333252 5.56016 0.333252 12.0002C0.333252 18.4402 5.55992 23.6668 11.9999 23.6668C18.4399 23.6668 23.6666 18.4402 23.6666 12.0002C23.6666 5.56016 18.4399 0.333496 11.9999 0.333496ZM17.4132 8.26683C17.2383 10.1102 16.4799 14.5902 16.0949 16.6552C15.9316 17.5302 15.6049 17.8218 15.3016 17.8568C14.6249 17.9152 14.1116 17.4135 13.4583 16.9818C12.4316 16.3052 11.8483 15.8852 10.8566 15.2318C9.70159 14.4735 10.4483 14.0535 11.1133 13.3768C11.2883 13.2018 14.2749 10.4835 14.3333 10.2385C14.3414 10.2014 14.3403 10.1629 14.3301 10.1263C14.3199 10.0897 14.301 10.0561 14.2749 10.0285C14.2049 9.97016 14.1116 9.9935 14.0299 10.0052C13.9249 10.0285 12.2916 11.1135 9.10659 13.2602C8.63992 13.5752 8.21992 13.7385 7.84658 13.7268C7.42658 13.7152 6.63325 13.4935 6.03825 13.2952C5.30325 13.0618 4.73159 12.9335 4.77825 12.5252C4.80159 12.3152 5.09325 12.1052 5.64159 11.8835C9.04825 10.4018 11.3116 9.42183 12.4433 8.95516C15.6866 7.60183 16.3516 7.3685 16.7949 7.3685C16.8883 7.3685 17.1099 7.39183 17.2499 7.5085C17.3666 7.60183 17.4016 7.73016 17.4132 7.8235C17.4016 7.8935 17.4249 8.1035 17.4132 8.26683Z" fill="white"/>
</svg>
